<svg width="849" height="849" viewBox="0 0 849 849" fill="none" xmlns="http://www.w3.org/2000/svg">
<path fill-rule="evenodd" clip-rule="evenodd" d="M264.719 538.339C161.967 562.291 103.178 528.848 88.3526 438.008C66.1138 301.749 141.449 158.599 244.816 144.877C348.182 131.154 391.636 170.298 464.287 219.454C536.938 268.609 747.507 384.268 771.43 403.898C795.353 423.527 846.54 500.232 744.157 548.818C675.902 581.209 590.991 575.109 489.423 530.518C453.719 514.907 421.204 506.646 391.88 505.734C362.556 504.823 320.169 515.691 264.719 538.339Z" fill="#EE58B6"/>
<path d="M381.845 365.348C391.08 371.376 394.794 379.174 392.986 388.742C384.336 401.707 380.011 412.934 380.011 422.423C380.011 431.913 379.36 444.256 378.058 459.454L306.169 460.973L306.017 460.881C304.096 460.918 302.207 460.948 300.351 460.973C284.351 461.181 270.156 463.3 269.486 463.404C264.247 464.217 254.806 454.497 252.186 451.204C247.976 445.913 245.975 439.651 245.085 432.836C244.246 426.407 245.429 420.431 247.754 414.701C250.469 408.007 254.72 402.213 260.109 397.11C266.018 391.693 272.382 387.271 279.516 384.009C279.793 383.883 284.913 381.362 285.159 381.395C285.323 381.418 293.509 384.04 304.893 389.358C317.814 380.174 331.788 370.456 346.82 360.204C360.935 357.606 372.61 359.32 381.845 365.348Z" fill="white"/>
<path fill-rule="evenodd" clip-rule="evenodd" d="M288.823 521.804C300.127 524.132 306.941 519.696 309.266 508.497C312.754 491.699 291.681 494.701 285.231 486.056C278.782 477.41 293.087 475.678 309.266 480.867C325.46 480.157 330.134 481.084 331.064 476.618C331.994 472.153 323.558 469.339 301.023 470.075C278.488 470.812 281.802 470.842 283.517 489.67C284.66 502.222 286.429 512.933 288.823 521.804Z" fill="white"/>
<path d="M569.753 557.68C561.065 550.493 554.946 545.973 551.666 543.082C543.834 536.179 535.811 529.494 527.909 522.669C526.285 521.266 524.707 519.756 523.37 518.084C521.692 515.987 522.075 514.539 524.723 513.518C526.814 512.712 529.098 512.341 531.329 511.985C537.981 510.921 544.645 509.928 551.314 508.972C554.244 508.552 557.198 508.306 560.137 507.941C560.662 507.875 561.162 507.613 561.674 507.442C561.42 507.029 561.226 506.56 560.903 506.211C558.329 503.432 555.732 500.675 553.141 497.913C552.913 497.67 552.671 497.44 552.435 497.204C552.804 497.115 553.168 496.997 553.541 496.942C560.369 495.934 567.196 494.92 574.027 493.937C578.513 493.292 582.997 492.624 587.497 492.095C592.102 491.554 596.721 491.115 601.342 490.733C605.474 490.392 609.623 490.248 613.755 489.904C616.403 489.684 619.025 489.162 621.672 488.948C624.982 488.68 628.31 488.638 631.624 488.411C635.763 488.128 639.894 487.711 644.034 487.435C647.514 487.202 651.006 487.14 654.486 486.904C657.293 486.714 660.086 486.301 662.894 486.131C665.637 485.965 668.392 485.983 671.141 485.919C678.26 485.752 685.378 485.549 692.498 485.431C696.854 485.359 701.248 485.089 705.556 485.553C707.802 485.795 710.369 486.956 711.97 488.536C716.016 492.53 719.602 496.993 723.363 501.276C725.668 503.903 727.978 506.526 730.247 509.184C735.03 514.786 739.776 520.419 744.562 526.018C746.049 527.757 747.64 529.406 749.132 531.14C749.56 531.637 749.811 532.287 750.144 532.867C749.673 532.482 748.27 531.282 748.736 531.706C794.908 573.711 600.467 582.642 569.753 557.68Z" fill="white"/>
<path d="M43.8084 402.47C43.9658 398.145 44.0996 393.819 44.2676 389.494C44.3218 388.097 44.4798 386.704 44.5661 385.308C45.2824 373.713 46.66 362.192 49.6273 350.951C51.9952 341.98 55.1219 333.255 58.9221 324.733C63.2569 315.011 68.5271 305.87 74.5995 297.178C77.6933 292.749 81.0724 288.482 84.6678 284.445C88.9937 279.589 93.4383 274.78 98.2863 270.455C103.821 265.517 109.769 261.016 115.742 256.599C117.072 255.616 119.422 255.136 121.009 255.547C123.796 256.268 124.199 258.69 122.068 260.54C117.227 264.741 114.924 270.104 114.569 276.332C114.373 279.772 114.696 283.241 114.505 286.681C113.875 298.023 117.187 308.463 122.092 318.422C126.781 327.944 133.609 335.785 143.406 340.366C149.028 342.994 155.04 344.839 160.96 346.783C166.102 348.472 171.371 349.776 176.568 351.304C181.667 352.803 186.689 354.163 192.091 352.361C194.862 351.437 196.942 353.916 195.88 356.602C191.867 366.758 188.448 377.3 181.398 385.864C177.17 391.001 172.278 395.755 167.044 399.88C159.361 405.935 150.527 410.252 141.702 414.505C133.095 418.653 124.682 423.203 116.037 427.267C106.297 431.846 96.4278 436.157 86.5516 440.44C78.5839 443.895 70.5403 447.181 62.4887 450.44C60.5634 451.219 58.5011 451.766 56.4493 452.106C54.3934 452.446 49.8769 449.223 49.07 447.092C47.0225 441.685 45.6306 436.125 45.0558 430.362C44.706 426.855 44.2352 423.36 43.6938 419.859C43.5688 419.611 43.5688 419.363 43.6938 418.99C43.902 414.194 43.9894 409.522 44.0474 404.849C44.049 404.72 43.7354 404.588 43.5688 404.458C43.5688 403.878 43.5688 403.298 43.5688 402.594C43.6521 402.47 43.8083 402.473 43.8084 402.47Z" fill="white"/>
<path fill-rule="evenodd" clip-rule="evenodd" d="M377.197 459.301L528.489 455.446H534.695C543.741 462.185 553.667 465.089 564.472 464.158C580.679 462.762 594.989 444.874 598.331 419.936C598.824 417.991 600.018 417.524 601.915 418.534C604.003 422.605 607.708 424.381 613.031 423.862C615.341 423.612 616.627 424.152 617.932 426.661C619.236 429.169 626.133 432.324 630.456 429.792C634.779 427.26 654.709 394.978 654.709 389.546C654.709 384.114 655.827 372.251 656.706 371.485C657.586 370.718 659.241 371.34 662.453 370.322C665.665 369.304 668.414 370.317 678.713 343.283C689.011 316.249 704.768 275.836 706.447 247.538C708.125 219.24 688.136 229.241 678.713 241.05C669.289 252.859 643.019 283.264 618.706 299.776C615.731 301.998 613.303 303.042 611.421 302.91C610.292 295.882 605.671 293.264 597.557 295.054C594.404 295.621 591.823 293.128 589.815 287.576C584.613 258.75 572.754 237.891 554.239 225.001C526.466 205.664 479.142 194.614 467.755 235.043C460.164 261.996 464.728 294.742 481.446 333.28L474.485 339.305C447.096 348.779 424.721 360.476 407.361 374.393C381.32 395.27 380.822 415.634 379.44 432.431C378.519 443.629 377.771 452.586 377.197 459.301Z" fill="white"/>
<path d="M321.215 342.899C321.447 340.709 321.552 338.505 321.805 336.318C321.819 336.2 322.931 335.949 323.251 336.169C326.229 338.214 329.174 340.311 332.06 342.485C332.842 343.074 332.903 343.66 333.258 342.118C333.812 339.709 337.241 339.036 339.294 340.748C344.002 344.675 346.378 349.955 348.101 355.696C349.596 360.677 349.004 365.739 349.149 370.77C349.242 374 352.267 376.436 355.442 376.566C357.789 376.662 360.258 377.692 362.37 378.857C367.479 381.675 370.765 386.122 372.379 391.723C374.118 397.755 372.5 403.125 369.004 408.137C365.824 412.695 362.928 417.47 358.313 420.812C355.76 422.661 352.819 424.196 350.821 426.531C348.675 429.039 346.211 430.674 343.288 431.802C336.089 434.58 328.223 430.977 324.698 424.974C320.974 417.054 307.684 423.508 302.534 411.825C299.935 407.969 298.923 404.736 299.484 404.413C300.168 404.019 299.222 403.021 298.011 401.749C292.722 396.194 288.025 390.177 284.811 383.133C284.303 382.021 283.78 380.874 283.558 379.689C283.422 378.961 283.625 377.92 284.098 377.418C284.395 377.102 285.577 377.328 286.175 377.655C287.071 378.145 287.781 378.964 288.609 379.593C290.019 380.665 290.802 380.209 290.42 378.537C289.334 373.785 290.332 369.274 292.004 364.915C292.905 362.564 294.371 360.419 295.733 358.276C295.862 358.073 297.171 358.381 297.741 358.749C298.798 359.432 299.713 360.335 300.687 361.147C300.752 359.848 300.772 358.545 300.9 357.252C300.976 356.484 301.164 355.716 301.397 354.977C302.564 351.276 303.19 351.089 306.279 353.41C306.693 353.721 307.189 353.924 307.647 354.177C307.71 353.706 307.793 353.236 307.832 352.763C308.173 348.696 307.359 345.006 304.386 341.986C304.351 341.95 304.996 340.889 305.367 340.859C309.65 340.523 313.933 340.345 317.851 342.634C318.652 343.101 319.451 343.572 320.375 344.166C320.747 343.828 321.164 343.383 321.215 342.899Z" fill="white"/>
<path fill-rule="evenodd" clip-rule="evenodd" d="M384.723 193.294C372.076 203.776 366.34 218.952 367.517 238.821C369.281 268.625 403.954 289.858 420.725 280.871C437.496 271.883 456.014 258.791 458.226 230.922C459.165 257.441 461.944 270.348 426.19 289.58C390.436 308.812 353.057 278.97 347.65 266.671C342.244 254.371 329.229 227.218 355.644 195.717C359.26 191.551 368.953 190.743 384.723 193.294Z" fill="white"/>
<path fill-rule="evenodd" clip-rule="evenodd" d="M686.073 542.006C689.133 541.67 691.952 541.401 694.749 540.986C701.104 540.043 707.444 539.005 713.797 538.05C717.578 537.481 721.415 537.205 725.142 536.401C727.757 535.837 730.126 536.203 732.535 536.996C732.922 537.123 733.219 537.527 733.557 537.802C733.151 538.03 732.763 538.407 732.334 538.462C726.749 539.167 721.148 539.754 715.571 540.517C709.963 541.283 704.383 542.254 698.779 543.055C694.874 543.613 690.946 544.01 687.036 544.532C684.998 544.804 682.981 545.243 680.943 545.514C678.057 545.898 675.154 546.155 672.269 546.544C668.884 547 665.514 547.565 662.13 548.033C659.41 548.41 656.676 548.684 653.955 549.055C650.489 549.528 647.032 550.067 643.568 550.552C641.012 550.91 638.452 551.234 635.892 551.561C633.196 551.905 630.489 552.174 627.804 552.591C626.179 552.844 624.684 552.832 624.201 550.962C623.761 549.257 624.632 547.921 626.293 547.553C628.567 547.049 630.901 546.774 633.224 546.555C635.981 546.294 638.753 546.183 641.521 546.033C644.927 545.85 648.339 545.755 651.741 545.51C655.36 545.249 658.969 544.833 662.586 544.527C666.839 544.166 671.101 543.902 675.349 543.493C677.557 543.28 679.743 542.834 681.942 542.512C683.233 542.324 684.529 542.173 686.073 542.006Z" fill="#E7EAEE"/>
<path fill-rule="evenodd" clip-rule="evenodd" d="M619.706 518.445C622.767 518.28 625.582 518.163 628.388 517.935C631.368 517.694 634.336 517.292 637.317 517.061C640.663 516.802 644.021 516.697 647.368 516.448C651.165 516.165 654.954 515.767 658.75 515.475C661.557 515.26 664.375 515.181 667.181 514.957C670.701 514.675 674.211 514.269 677.731 513.987C680.537 513.763 683.356 513.691 686.162 513.467C689.871 513.171 693.568 512.619 697.28 512.495C701.515 512.353 705.769 511.035 710.001 512.495C710.505 512.669 710.963 512.976 711.442 513.221C710.987 513.307 710.534 513.425 710.074 513.474C706.863 513.815 703.647 514.105 700.44 514.481C696.544 514.939 692.665 515.538 688.764 515.936C685.911 516.227 683.027 516.208 680.172 516.479C676.256 516.852 672.359 517.415 668.445 517.809C665.605 518.094 662.748 518.215 659.902 518.451C656.19 518.759 652.48 519.096 648.771 519.442C645.391 519.757 642.011 520.073 638.637 520.439C634.328 520.906 630.03 521.48 625.718 521.906C621.626 522.31 617.516 522.535 613.423 522.931C610.576 523.207 607.751 523.73 604.902 523.953C603.789 524.04 602.55 523.8 601.53 523.347C600.801 523.023 600.341 522.097 599.761 521.44C600.498 520.938 601.199 520.07 601.976 519.995C606.699 519.544 611.442 519.289 616.174 518.93C617.275 518.846 618.363 518.611 619.706 518.445Z" fill="#E7EAEE"/>
<path fill-rule="evenodd" clip-rule="evenodd" d="M359.415 581.084C359.159 581.289 359.025 581.446 358.896 581.443C357.727 581.408 356.559 581.346 355.391 581.292C356.507 580.522 357.526 579.338 358.756 579.056C363.595 577.948 367.953 575.995 371.991 573.113C377.266 569.348 380.523 564.411 381.708 558.102C381.891 557.129 381.617 556.694 380.444 556.7C378.77 556.709 377.092 556.435 375.42 556.246C372.148 555.876 369.544 553.563 369.256 550.804C369.072 549.035 371.728 545.33 373.69 544.374C378.253 542.151 383.324 546.541 384.621 550.343C385.143 551.874 385.391 551.318 386.081 550.688C389.338 547.712 390.405 543.889 390.145 539.691C389.868 535.204 387.892 531.595 383.999 529.071C382.65 528.196 382.133 526.951 383.178 525.361C384.319 523.626 387.483 523.509 388.719 525.042C390.391 527.115 391.857 529.504 392.779 531.988C395.016 538.012 394.443 543.869 390.68 549.259C390.411 549.644 390.189 550.089 389.843 550.39C386.889 552.955 385.297 556.147 384.096 559.906C380.535 571.059 372.36 577.643 361.278 580.94C360.745 581.098 360.122 580.96 359.415 581.084ZM374.488 547.355C372.349 548.621 371.765 552.257 373.79 552.889C376.129 553.62 378.831 553.216 381.375 553.241C381.485 553.242 381.668 552.602 381.702 552.25C382.034 548.831 378.828 546.471 374.488 547.355Z" fill="black"/>
<path fill-rule="evenodd" clip-rule="evenodd" d="M657.93 529.348C664.991 528.678 671.797 527.956 678.613 527.355C683.444 526.929 688.292 526.713 693.125 526.316C696.107 526.071 699.078 525.677 702.052 525.323C706.155 524.835 710.261 523.926 714.356 523.972C716.692 523.999 719.409 524.758 721.001 527.123C721.124 527.307 721.263 527.48 721.394 527.657C721.086 527.718 720.755 527.885 720.472 527.825C715.131 526.693 709.877 527.788 704.577 528.277C700.882 528.618 697.125 528.212 693.407 528.38C689.674 528.548 685.956 529.027 682.228 529.344C678.113 529.695 673.991 529.967 669.882 530.374C667.674 530.593 665.494 531.083 663.289 531.345C660.013 531.734 656.72 531.983 653.444 532.376C649.698 532.826 645.948 533.277 642.227 533.896C637.803 534.632 633.42 535.61 628.999 536.367C624.62 537.118 620.234 537.92 615.817 538.308C613.804 538.485 611.674 537.859 609.663 537.341C608.116 536.944 608.467 535.854 609.452 535.14C610.248 534.563 611.222 534.063 612.177 533.913C615.051 533.463 617.954 533.194 620.847 532.869C623.905 532.524 626.959 532.144 630.024 531.874C634.386 531.489 638.76 531.237 643.121 530.839C645.771 530.597 648.401 530.143 651.049 529.864C653.253 529.632 655.469 529.516 657.93 529.348Z" fill="#E7EAEE"/>
<path fill-rule="evenodd" clip-rule="evenodd" d="M611.107 508.573C616.931 507.908 622.502 507.207 628.083 506.591C631.708 506.191 635.353 505.961 638.979 505.563C641.098 505.33 643.194 504.893 645.306 504.592C646.757 504.384 648.22 504.268 649.675 504.082C654.122 503.512 658.56 502.861 663.016 502.367C667.547 501.865 672.1 501.557 676.635 501.08C680.789 500.644 684.921 499.964 689.082 499.668C690.576 499.562 692.154 500.178 693.639 500.642C694.133 500.796 694.455 501.502 694.856 501.956C694.288 502.143 693.729 502.455 693.151 502.497C689.912 502.73 686.665 502.846 683.428 503.102C680.011 503.372 676.599 503.723 673.191 504.095C670.579 504.379 667.979 504.775 665.369 505.076C662.237 505.436 659.092 505.682 655.968 506.095C651.383 506.7 646.815 507.431 642.235 508.068C637.274 508.759 632.296 509.332 627.346 510.09C623.071 510.745 618.831 511.625 614.564 512.339C608.955 513.278 603.332 514.126 597.724 515.069C595.676 515.413 594.432 514.245 594.247 512.618C594.08 511.145 595.377 510.607 597.036 510.497C601.392 510.206 605.725 509.577 610.063 509.054C610.343 509.02 610.593 508.739 611.107 508.573Z" fill="#E7EAEE"/>
<path fill-rule="evenodd" clip-rule="evenodd" d="M676.174 560.815C670.74 561.494 665.554 562.159 660.373 562.859C658.167 563.158 655.973 563.731 653.767 563.759C653.051 563.768 651.627 562.295 651.738 561.759C651.964 560.671 652.896 559.048 653.748 558.9C657.378 558.27 661.087 558.11 664.764 557.754C668.083 557.432 671.396 557.064 674.714 556.742C678.392 556.386 682.071 556.043 685.752 555.723C689.874 555.365 693.996 555.017 698.122 554.708C700.948 554.496 703.784 554.414 706.608 554.176C709.929 553.896 713.238 553.471 716.559 553.183C719.216 552.952 721.888 552.896 724.543 552.644C727.281 552.384 730.007 551.978 732.739 551.648C733.069 551.608 733.431 551.563 733.737 551.657C734.793 551.981 735.83 552.366 736.874 552.727C735.954 553.045 735.055 553.529 734.11 553.653C728.515 554.388 722.908 555.019 717.31 555.726C713.586 556.197 709.876 556.788 706.148 557.233C702.728 557.642 699.287 557.878 695.867 558.287C694.066 558.503 692.301 559.034 690.499 559.233C686.665 559.656 682.816 559.939 678.976 560.318C678.118 560.403 677.275 560.645 676.174 560.815Z" fill="#E7EAEE"/>
<path fill-rule="evenodd" clip-rule="evenodd" d="M260.109 397.11C266.018 391.693 272.382 387.271 279.516 384.009C279.793 383.883 280.077 383.575 280.322 383.609C281.394 383.756 282.453 383.998 283.517 384.206C282.747 384.731 282.03 385.372 281.199 385.766C272.945 389.677 265.257 394.424 259.003 401.224C252.925 407.833 248.567 415.249 247.606 424.508C246.722 433.02 247.802 440.98 252.617 448.16C255.201 452.013 258.69 454.888 262.929 456.797C263.266 456.948 263.583 457.144 263.91 457.319C263.531 457.396 263.154 457.488 262.773 457.547C257.534 458.36 254.806 454.497 252.186 451.204C247.976 445.913 245.975 439.651 245.085 432.836C244.246 426.407 245.429 420.431 247.754 414.701C250.469 408.007 254.72 402.213 260.109 397.11Z" fill="#00160A"/>
<path fill-rule="evenodd" clip-rule="evenodd" d="M587.884 507.079C586.994 505.122 588.284 502.952 590.332 502.972C593.83 503.005 597.327 503.239 600.824 503.415C603.5 503.55 606.173 503.726 608.848 503.884C609.17 503.902 609.576 503.802 609.799 503.953C610.543 504.455 611.221 505.046 611.925 505.602C611.246 505.936 610.587 506.507 609.886 506.56C607.718 506.721 605.516 506.877 603.361 506.682C599.547 506.336 595.942 507.193 592.42 508.272C590.502 508.858 589.293 508.247 587.884 507.079Z" fill="#E7EAEE"/>
<path fill-rule="evenodd" clip-rule="evenodd" d="M82.6567 345.73C82.1579 348.758 81.6056 351.529 81.1796 354.319C80.9096 356.088 80.8492 357.887 80.6565 359.668C80.342 362.575 79.7892 365.473 79.7048 368.385C79.5004 375.436 79.5647 382.495 79.4142 389.549C79.269 396.351 80.5801 402.936 82.1659 409.489C82.4739 410.762 82.5671 412.262 83.3222 413.211C84.481 414.668 83.4051 415.375 82.5915 415.598C81.8144 415.812 80.298 415.431 79.9863 414.845C79.1324 413.24 78.554 411.426 78.2039 409.63C77.3171 405.079 76.2419 400.518 75.93 395.914C75.5079 389.685 75.8005 383.411 75.6544 377.16C75.4773 369.582 76.5937 362.142 77.6347 354.671C79.353 342.34 81.8099 330.184 85.7064 318.35C86.1768 316.921 87.233 315.542 88.3575 314.507C89.7311 313.243 91.8471 314.398 92.1499 316.306C92.508 318.562 91.4797 320.289 90.2397 321.995C86.507 327.131 84.6408 332.987 83.6548 339.175C83.3199 341.277 82.9893 343.379 82.6567 345.73Z" fill="#E7EAEE"/>
<path fill-rule="evenodd" clip-rule="evenodd" d="M107.827 399.499C107.651 401.048 110.438 402.905 107.331 403.49C106.491 403.648 104.653 401.969 104.266 400.831C103.096 397.384 101.962 393.824 101.648 390.243C101.213 385.296 101.539 380.289 101.539 375.308C101.539 374.73 101.539 374.152 101.539 373.574C101.539 365.731 101.574 357.889 101.515 350.047C101.499 347.968 101.012 345.886 101.073 343.814C101.118 342.29 101.434 340.656 102.135 339.306C102.636 338.341 103.931 337.273 104.958 337.188C105.663 337.131 107.079 338.617 107.194 339.525C107.495 341.901 107.373 344.346 107.196 346.749C107.058 348.615 106.403 350.449 106.29 352.314C106.009 356.973 105.886 361.641 105.736 366.307C105.541 372.347 104.991 378.408 105.328 384.422C105.607 389.393 106.954 394.31 107.827 399.499Z" fill="#E7EAEE"/>
<path fill-rule="evenodd" clip-rule="evenodd" d="M131.604 389.437C126.883 382.138 123.365 374.43 121.163 366.156C120.719 364.488 121.105 362.372 121.731 360.71C122.031 359.912 124.119 359.016 124.795 359.372C125.712 359.854 126.442 361.452 126.569 362.648C127.057 367.263 127.372 371.832 128.894 376.323C130.744 381.78 133.916 386.335 136.989 391.014C137.629 391.987 139.542 392.949 138.192 394.185C136.848 395.416 135.482 393.989 134.468 392.859C133.515 391.796 132.636 390.663 131.604 389.437Z" fill="#E7EAEE"/>
<path fill-rule="evenodd" clip-rule="evenodd" d="M153.269 373.798C150.43 371.036 147.587 368.518 145.045 365.711C143.723 364.25 143.971 362.395 145.56 361.001C147.145 359.612 148.136 360.909 149.049 361.966C152.503 365.967 155.908 370.012 159.316 374.054C159.51 374.283 159.714 374.86 159.665 374.894C159.108 375.28 158.388 375.992 157.931 375.852C156.37 375.374 154.897 374.59 153.269 373.798Z" fill="#E7EAEE"/>
<path fill-rule="evenodd" clip-rule="evenodd" d="M302.831 709.621C309.25 711.228 315.447 712.748 321.563 714.522C322.685 714.847 323.482 716.203 324.429 717.082C323.101 717.167 321.687 717.576 320.457 717.281C314.104 715.759 307.741 714.233 301.492 712.369C295.36 710.54 289.359 708.306 283.304 706.239C283.016 706.14 282.776 705.918 282.499 705.779C281.016 705.038 279.437 704.285 280.605 702.296C281.682 700.461 283.357 700.506 285.016 701.443C287.449 702.818 289.688 704.553 292.222 705.706C295.567 707.228 299.117 708.336 302.831 709.621Z" fill="#E7EAEE"/>
<path fill-rule="evenodd" clip-rule="evenodd" d="M311.216 690.716C313.825 692.222 316.328 693.563 318.773 695.005C319.292 695.311 319.601 695.987 320.007 696.493C319.141 696.838 318.086 697.695 317.438 697.448C312.249 695.468 307.122 693.317 302.006 691.142C299.196 689.948 296.418 688.665 293.679 687.31C292.147 686.552 290.401 685.757 291.727 683.411C292.556 681.946 294.52 681.583 296.347 682.581C301.255 685.261 306.174 687.92 311.216 690.716Z" fill="#E7EAEE"/>
<path fill-rule="evenodd" clip-rule="evenodd" d="M296.789 662.9C296.688 659.297 298.997 657.775 301.996 659.553C307.094 662.578 312.062 665.827 317.044 669.047C318.529 670.007 319.932 671.118 321.255 672.295C321.749 672.735 321.907 673.558 322.218 674.206C321.355 674.19 320.373 674.44 319.648 674.112C315.383 672.186 311.164 670.156 306.958 668.101C303.589 666.454 300.262 664.722 296.789 662.9Z" fill="#E7EAEE"/>
<path fill-rule="evenodd" clip-rule="evenodd" d="M314.074 637.809C318.455 637.867 320.778 640.781 323.28 643.359C323.998 644.1 324.581 645.026 325.012 645.962C325.439 646.889 326.018 648.157 324.83 648.785C324.294 649.068 323.11 648.508 322.394 648.062C320.34 646.781 318.404 645.318 316.359 644.023C315.624 643.557 314.597 643.514 313.905 643.011C312.895 642.277 312.066 641.302 311.161 640.43C312.051 639.556 312.941 638.683 314.074 637.809Z" fill="#E7EAEE"/>
<path fill-rule="evenodd" clip-rule="evenodd" d="M326.491 549.226C330.105 556.725 333.002 564.461 333.969 572.803C334.487 577.277 335.08 581.746 335.434 586.234C335.755 590.308 336.003 594.409 335.912 598.49C335.804 603.373 335.277 608.245 334.977 613.124C334.768 616.517 334.735 619.924 334.447 623.309C334.042 628.071 333.394 632.812 333.002 637.575C332.704 641.181 332.506 644.807 332.514 648.423C332.523 652.538 332.819 656.653 332.973 660.769C333.15 665.465 332.753 670.266 333.604 674.835C334.877 681.673 336.623 688.486 338.889 695.061C342.221 704.728 347.986 713.13 354.346 721.04C358.274 725.926 362.807 730.264 369.191 731.948C369.273 731.97 369.345 732.738 369.181 732.882C366.825 734.942 363.896 734.104 361.412 733.772C355.859 733.03 350.366 731.719 344.911 730.385C331.05 726.995 317.208 723.525 303.389 719.967C296.656 718.233 289.998 716.214 283.293 714.371C282.306 714.099 281.034 713.65 280.259 714.029C276.35 715.945 273.33 713.84 270.457 711.892C264.159 707.623 260.587 701.423 258.734 694.139C256.179 684.089 258.233 674.498 261.941 665.203C264.387 659.074 267.303 653.121 270.231 647.201C273.203 641.191 276.934 635.637 281.456 630.671C282.984 628.993 284.842 627.619 286.502 626.057C288.779 623.913 288.898 620.973 289.086 618.172C289.303 614.926 288.811 611.603 289.277 608.408C290.86 597.551 295.65 587.804 300.688 578.261C303.2 573.503 306.39 568.983 309.932 564.932C312.56 561.927 316.016 559.495 320.086 558.342C321.334 557.988 321.687 557.702 320.757 556.146C319.41 553.892 317.515 551.274 319.897 548.257C322.747 545.405 324.804 545.726 326.491 549.226ZM330.279 571.865C330.181 571.962 330.018 572.046 329.997 572.158C329.812 573.111 329.791 574.119 329.464 575.018C328.024 578.988 326.91 583.151 324.917 586.831C320.919 594.212 315.816 600.859 309.788 606.744C304.532 611.874 299.2 616.927 293.988 622.101C291.017 625.051 287.96 627.974 285.401 631.266C281.295 636.548 276.982 641.809 273.839 647.661C270.188 654.459 267.452 661.793 264.809 669.073C263.149 673.645 262.024 678.492 261.329 683.313C260.582 688.494 261.58 693.661 263.923 698.383C265.65 701.864 268.082 704.749 272.066 706.003C276.829 707.504 281.507 709.277 286.26 710.815C296.806 714.228 307.317 717.774 317.957 720.87C325.923 723.188 334.048 724.979 342.143 726.828C346.727 727.875 351.39 728.583 356.028 729.38C356.395 729.443 356.848 729.003 357.26 728.797C357.053 728.503 356.873 728.184 356.634 727.919C354.939 726.041 353.052 724.308 351.565 722.279C347.473 716.695 342.99 711.295 339.678 705.263C333.802 694.559 329.863 683.081 328.98 670.736C328.708 666.935 328.325 663.143 327.993 658.847C327.993 654.081 327.801 649.305 328.052 644.551C328.267 640.476 329 636.43 329.485 632.368C329.835 629.433 329.952 626.454 330.527 623.566C331.628 618.045 331.11 615.816 326.414 612.667C324.231 611.203 321.489 609.792 321.383 606.727C321.338 605.43 322.377 603.89 323.358 602.887C323.654 602.584 325.748 603.428 326.43 604.242C327.976 606.084 329.144 608.242 330.496 610.252C330.714 610.576 331.089 610.794 331.391 611.06C331.587 610.726 331.925 610.405 331.956 610.056C332.166 607.718 332.455 605.375 332.441 603.035C332.424 600.028 332.124 597.024 331.984 594.017C331.797 589.986 331.665 585.953 331.475 581.923C331.34 579.053 331.178 576.184 330.955 573.32C330.916 572.82 330.513 572.349 330.279 571.865ZM320.021 561.598C314.682 563.439 311.008 567.361 308.118 571.897C302.351 580.949 297.759 590.628 294.761 600.947C293.364 605.754 292.769 610.806 294.64 615.744C294.75 616.033 295.518 616.396 295.573 616.338C302.724 608.781 309.906 601.253 316.931 593.579C324.099 585.749 326.806 576.408 325.467 565.939C324.859 561.189 324.524 561.068 320.021 561.598ZM705.556 485.553C707.802 485.795 710.369 486.955 711.97 488.536C716.016 492.53 719.602 496.993 723.363 501.276C725.669 503.903 727.978 506.526 730.247 509.184C735.03 514.786 739.776 520.419 744.562 526.018C746.049 527.757 747.64 529.406 749.132 531.14C749.56 531.637 749.811 532.287 750.144 532.867C749.673 532.482 749.164 532.134 748.736 531.706C737.427 520.383 726.163 509.015 714.804 497.742C711.084 494.052 706.858 490.928 701.756 489.473C696.379 487.939 690.9 487.418 685.266 488.342C682.428 488.807 679.448 488.326 676.539 488.443C670.064 488.702 663.596 489.128 657.121 489.366C653.327 489.505 649.519 489.284 645.728 489.46C641.672 489.647 637.628 490.106 633.579 490.454C629.855 490.774 626.129 491.074 622.409 491.437C619.462 491.725 616.527 492.13 613.58 492.421C609.835 492.791 606.074 493.014 602.339 493.457C599.172 493.833 596.036 494.455 592.88 494.928C589.371 495.454 585.852 495.913 582.343 496.442C576.94 497.256 571.542 498.096 566.151 498.981C565.951 499.013 565.62 499.793 565.734 499.957C566.732 501.396 567.759 502.823 568.886 504.162C574.516 510.846 580.221 517.468 585.818 524.179C592.165 531.788 598.309 539.569 604.764 547.084C609.295 552.357 613.759 557.797 620.154 561.047C620.359 561.151 620.541 561.299 620.733 561.427C620.5 561.466 620.241 561.592 620.037 561.532C616.131 560.387 612.056 559.916 609.205 556.223C603.94 549.404 598.269 542.902 592.854 536.198C586.153 527.904 579.782 519.326 571.821 512.143C571.173 511.559 570.495 510.952 569.726 510.568C568.02 509.718 566.453 509.432 565.123 511.449C562.475 515.465 559.586 519.32 556.942 523.338C555.177 526.018 555.75 527.331 558.94 529.502C567.341 535.217 576.465 539.286 586.227 542.059C590.292 543.213 594.323 544.678 597.212 548.1C597.417 548.342 597.636 548.573 597.848 548.809C597.505 548.775 597.138 548.811 596.823 548.699C583.676 544.05 570.514 539.444 557.412 534.672C555.259 533.888 553.277 532.5 551.397 531.14C550.197 530.272 550.254 528.971 551.037 527.575C553.73 522.779 556.305 517.917 558.899 513.066C559.075 512.737 559.152 511.976 559.091 511.955C558.43 511.729 557.7 511.399 557.049 511.498C554.329 511.912 551.588 512.303 548.932 512.997C542.935 514.562 536.98 516.291 531.021 518.002C530.673 518.102 530.445 518.624 530.161 518.949C531.668 520.126 533.176 521.303 534.808 522.605C541.122 528.1 547.316 533.464 553.498 538.842C556.81 541.723 560.1 544.628 563.4 547.521C563.535 547.64 563.676 547.753 563.814 547.868C563.502 547.92 563.164 548.078 562.883 548.007C558.875 546.993 554.946 545.973 551.666 543.082C543.834 536.179 535.811 529.494 527.909 522.669C526.285 521.266 524.707 519.756 523.37 518.084C521.693 515.987 522.075 514.539 524.724 513.518C526.814 512.712 529.098 512.341 531.329 511.985C537.981 510.921 544.645 509.928 551.314 508.972C554.244 508.552 557.198 508.306 560.137 507.941C560.662 507.875 561.162 507.613 561.674 507.442C561.42 507.029 561.226 506.56 560.903 506.211C558.329 503.432 555.732 500.675 553.141 497.913C552.913 497.67 552.671 497.44 552.435 497.204C552.804 497.115 553.168 496.997 553.541 496.942C560.369 495.934 567.196 494.92 574.027 493.937C578.513 493.292 582.997 492.624 587.497 492.095C592.102 491.554 596.721 491.115 601.342 490.733C605.474 490.392 609.623 490.248 613.755 489.904C616.403 489.684 619.025 489.162 621.672 488.948C624.982 488.68 628.31 488.638 631.624 488.411C635.763 488.127 639.894 487.711 644.034 487.435C647.514 487.202 651.006 487.139 654.486 486.904C657.293 486.714 660.086 486.301 662.894 486.131C665.637 485.965 668.392 485.983 671.141 485.919C678.26 485.752 685.378 485.549 692.498 485.431C696.854 485.359 701.248 485.089 705.556 485.553ZM291.466 468.749C293.365 468.946 295.306 468.689 297.219 468.802C301.884 469.079 306.54 469.507 311.205 469.769C315.547 470.012 319.91 469.962 324.24 470.329C328.673 470.705 331.328 472.557 331.043 477.87C330.787 482.662 330.699 487.463 330.529 492.26C330.37 496.724 330.196 501.187 330.042 505.651C330.019 506.311 330.042 506.975 330.085 507.634C330.122 508.206 330.216 508.774 330.285 509.343C330.121 509.344 329.832 509.393 329.811 509.337C329.576 508.721 329.273 508.102 329.199 507.459C328.939 505.207 328.77 502.944 328.554 500.687C328.231 497.319 327.905 493.952 327.565 490.586C327.393 488.884 327.197 487.183 326.997 485.484C326.873 484.428 326.753 483.37 326.566 482.324C326.486 481.879 326.24 481.464 326.07 481.035C325.721 481.233 325.302 481.362 325.034 481.641C321.761 485.041 319.524 489.007 318.666 493.726C318.572 494.243 318.26 494.719 318.049 495.215C317.874 494.777 317.731 494.323 317.521 493.903C313.699 486.254 307.678 481.172 299.455 479.435C295.697 478.641 291.64 479.317 287.719 479.292C285.745 479.28 285.419 480.414 285.59 482.1C285.964 485.767 286.245 489.444 286.596 493.114C287.073 498.108 287.585 503.099 288.07 508.092C288.411 511.596 288.688 515.107 289.087 518.604C289.199 519.588 289.647 520.531 289.928 521.496C290.059 521.947 290.159 522.408 290.274 522.865C289.772 522.517 288.957 522.263 288.823 521.804C288.146 519.489 287.649 517.12 287.085 514.771C286.429 512.043 285.769 509.317 285.11 506.34C284.452 501.696 283.546 497.322 283.195 492.902C282.699 486.656 281.743 480.34 283.134 474.121C283.922 470.6 287.94 468.382 291.466 468.749ZM278.077 481.021C279.104 481.384 279.879 482.479 280.764 483.255C280.153 483.965 279.645 484.818 278.911 485.355C277.302 486.529 275.385 487.327 273.942 488.663C270.513 491.839 272.135 498.15 275.694 499.817C277.335 500.586 278.975 501.369 280.56 502.247C281.133 502.565 281.546 503.181 282.032 503.66C281.441 503.676 280.849 503.692 280.258 503.707C276.459 503.806 273.61 502.05 271.482 498.996C268.276 494.394 269.978 489.894 273.753 486.294C274.109 485.955 274.431 485.579 274.795 485.249C275.263 484.824 275.757 484.429 276.241 484.02C275.301 483.9 274.265 483.461 273.439 483.717C270.358 484.674 268.608 487.249 267.672 490.067C264.459 499.744 272.055 507.582 280.674 506.573C281.584 506.467 282.567 507.001 283.517 507.238C283.288 507.382 283.077 507.58 282.829 507.661C275.613 510.014 269.465 507.347 265.979 500.376C265.739 499.895 265.41 499.459 265.122 498.755C263.454 490.207 267.016 483.832 274.832 481.283C275.856 480.949 277.133 480.688 278.077 481.021ZM286.864 471.319C285.334 471.67 284.797 473.322 285.607 474.789C286.715 476.797 288.423 476.871 290.483 476.668C293.732 476.346 297.043 476.095 300.282 476.372C304.388 476.722 308.429 477.844 312.535 478.232C315.955 478.555 319.428 478.298 323.125 478.048C324.569 477.964 326.013 477.856 327.458 477.804C329.195 477.74 330.188 476.349 329.252 474.861C328.678 473.948 327.494 472.997 326.485 472.871C322.264 472.344 318.01 472.035 313.76 471.818C310.755 471.665 307.73 471.909 304.724 471.76C300.174 471.534 295.636 471.059 291.086 470.824C289.687 470.752 288.241 471.003 286.864 471.319ZM512.071 453.244C517.097 453.344 522.11 454.157 527.127 454.678C527.501 454.717 527.905 454.834 528.217 455.038C528.872 455.465 529.475 455.975 530.099 456.451C529.302 456.529 528.506 456.629 527.708 456.683C522.704 457.026 517.701 457.39 512.694 457.666C511.862 457.712 510.999 457.177 510.166 457.221C504.993 457.499 499.827 457.908 494.653 458.168C493.489 458.226 492.295 457.67 491.131 457.73C486.123 457.988 481.123 458.404 476.115 458.675C475.2 458.725 474.254 458.184 473.339 458.232C468.166 458.505 463 458.914 457.826 459.178C456.745 459.234 455.633 458.682 454.552 458.739C449.545 459.001 444.544 459.417 439.537 459.684C438.539 459.737 437.51 459.191 436.512 459.242C431.338 459.511 426.172 459.917 420.999 460.19C420.083 460.238 419.138 459.698 418.223 459.747C413.049 460.019 407.883 460.418 402.71 460.696C401.877 460.74 401.015 460.206 400.182 460.251C395.009 460.528 389.843 460.937 384.669 461.197C383.505 461.255 382.31 460.699 381.147 460.759C376.139 461.017 371.138 461.433 366.131 461.704C365.216 461.754 364.27 461.213 363.355 461.261C358.182 461.534 353.015 461.94 347.842 462.209C346.843 462.26 345.815 461.715 344.817 461.767C339.726 462.035 334.643 462.445 329.552 462.713C328.554 462.766 327.526 462.22 326.528 462.272C321.354 462.54 316.188 462.95 311.014 463.218C310.016 463.27 308.987 462.724 307.99 462.777C302.982 463.044 297.981 463.452 292.974 463.724C292.059 463.773 291.113 463.232 290.198 463.281C285.025 463.553 279.858 463.949 274.685 464.231C273.935 464.271 273.154 463.739 272.406 463.785C268.14 464.047 263.882 464.446 259.615 464.713C256.711 464.894 253.789 464.816 250.893 465.067C246.755 465.426 242.608 465.821 238.513 466.501C235.31 467.032 232.206 468.188 229 468.695C228.097 468.838 226.766 467.859 226.088 467.017C225.801 466.661 226.447 465.022 227.09 464.493C229.727 462.324 232.901 461.955 236.434 462.24C238.633 462.072 240.583 461.914 242.532 461.733C246.073 461.404 249.606 460.958 253.153 460.751C257.834 460.478 262.526 460.232 267.212 460.256C275.079 460.296 282.944 460.667 290.811 460.689C296.658 460.705 302.506 460.399 308.354 460.218C313.289 460.064 318.224 459.881 323.16 459.717C328.344 459.544 333.528 459.382 338.712 459.21C343.648 459.046 348.586 458.927 353.518 458.692C359.383 458.414 365.241 457.992 371.106 457.729C372.354 457.673 373.627 458.217 374.878 458.171C382.317 457.896 389.753 457.519 397.191 457.2C398.544 457.142 399.907 457.268 401.256 457.177C405.682 456.878 410.102 456.475 414.53 456.215C415.526 456.157 416.557 456.711 417.554 456.654C422.065 456.393 426.567 455.979 431.077 455.708C431.908 455.658 432.774 456.201 433.604 456.15C438.032 455.88 442.451 455.465 446.879 455.205C447.875 455.147 448.906 455.701 449.903 455.644C454.414 455.383 458.916 454.961 463.427 454.7C464.423 454.643 465.455 455.198 466.451 455.138C470.796 454.88 475.131 454.45 479.477 454.197C480.556 454.134 481.671 454.696 482.75 454.633C487.095 454.379 491.431 453.962 495.776 453.688C496.523 453.641 497.305 454.177 498.054 454.133C502.73 453.855 507.407 453.151 512.071 453.244ZM511.987 205.818C522.944 206.832 533.267 210.343 542.77 215.767C548.355 218.955 553.548 222.898 558.634 226.861C566.524 233.009 572.722 240.712 578.074 249.111C582.065 255.376 585.554 261.918 587.626 269.041C589.51 275.517 591.195 282.1 592.247 288.749C593.006 293.552 592.557 298.54 592.698 303.444C592.842 308.456 592.317 313.399 591.783 318.384C590.481 330.554 588.197 342.476 584.778 354.235C583.294 359.338 584.365 364.618 585.338 369.785C586.19 374.311 587.76 378.54 590.169 382.473C590.46 382.947 590.436 383.612 590.558 384.188C589.941 384.148 589.291 384.219 588.712 384.05C584.533 382.83 583.179 379.423 582.182 375.692C581.468 373.015 580.822 370.283 579.73 367.753C578.482 364.86 577.997 365.135 575.257 366.499C569.616 369.307 563.883 371.973 558.028 374.302C550.098 377.457 541.758 379.092 533.322 380.413C528.742 381.131 524.117 382.527 520.669 385.869C519.066 387.423 517.823 389.629 517.14 391.768C516.284 394.447 516.089 397.27 517.681 400.043C518.625 401.687 519.617 401.965 521.187 401.533C528.808 399.437 536.374 397.11 544.067 395.323C549.976 393.95 556.066 393.375 562.034 392.23C568.228 391.042 574.464 390.751 580.738 390.779C581.21 390.781 581.681 390.905 582.153 390.973C581.725 391.071 581.3 391.179 580.871 391.267C575.039 392.46 569.203 393.631 563.376 394.847C558.096 395.95 552.83 397.121 547.55 398.227C541.649 399.464 535.727 400.604 529.84 401.901C526.967 402.534 524.094 403.264 521.324 404.241C517.459 405.604 516.245 408.001 516.033 412.383C515.794 417.315 516.646 421.932 517.832 426.509C519.962 434.726 523.613 442.218 529.517 448.555C534.479 453.881 540.074 458.195 547.189 460.032C551.025 461.023 555.035 461.647 558.991 461.798C563.924 461.985 568.72 461.062 573.398 459.095C579.26 456.631 583.789 452.758 587.148 447.577C590.839 441.884 593.267 435.589 594.142 428.847C594.869 423.251 595.627 417.598 595.583 411.976C595.52 403.87 593.841 395.96 590.705 388.413C590.51 387.943 589.749 387.282 591.244 387.239C595.198 387.125 599.122 390.727 599.174 394.836C599.221 398.595 599.348 402.363 599.148 406.112C598.788 412.904 606.044 421.784 612.024 423.316C613.332 423.651 613.45 423.188 613.13 422.512C609.484 414.799 611.721 407.259 613.887 399.808C618.068 385.42 623.799 371.594 629.537 357.768C635.149 344.247 640.537 330.634 645.986 317.047C650.608 305.522 655.155 293.968 659.774 282.442C664.221 271.343 668.715 260.263 673.195 249.178C673.338 248.823 673.573 248.504 673.714 248.148C673.98 247.474 674.208 246.784 674.452 246.101C673.756 246.571 672.894 246.909 672.388 247.533C666.403 254.915 660.831 262.666 654.427 269.663C647.582 277.142 640.15 284.122 632.623 290.934C627.246 295.8 621.292 300.035 615.583 304.537C615.049 304.958 614.432 305.275 613.853 305.641C613.908 304.967 614.031 304.292 614.008 303.621C613.833 298.476 618.612 298.013 621.487 295.766C625.814 292.383 630.313 289.203 634.497 285.653C642.292 279.039 648.496 270.966 654.816 263.013C656.525 260.863 658.355 258.809 660.254 256.586C665.795 250.571 671.009 244.478 676.688 238.85C681.668 233.915 687.203 229.6 694.195 227.57C697.313 226.664 702.98 228.742 705.077 232.028C707.265 235.458 708.136 239.218 708.125 243.306C708.102 251.792 706.373 260.014 704.58 268.233C702.622 277.201 700.724 286.184 698.544 295.099C697.265 300.328 695.761 305.538 693.878 310.578C689.397 322.569 684.849 334.544 679.896 346.345C677.077 353.06 673.592 359.522 670.047 365.901C668.082 369.437 665.179 372.132 660.509 371.92C658.596 371.833 657.366 374.059 657.102 376.775C656.719 380.726 656.393 384.711 655.578 388.585C653.928 396.427 650.41 403.558 646.194 410.314C643.008 415.418 639.466 420.301 636.177 425.345C633.9 428.837 630.883 431.656 626.752 431.874C624.163 432.01 621.471 430.37 618.845 429.47C618.417 429.324 618.041 428.926 617.729 428.568C616.441 427.095 615.451 424.92 613.846 424.296C612.344 423.713 610.16 425.183 608.352 425.001C605.262 424.69 602.678 423.088 600.789 420.507C600.42 420.004 600.001 418.833 599.6 420.758C598.512 425.979 597.133 431.15 595.663 436.281C592.983 445.633 588.021 453.675 580.438 459.797C575.738 463.592 570.322 466.105 563.978 466.453C557.543 466.806 551.775 465.063 546.017 462.504C537.868 458.883 530.707 453.948 524.015 448.09C514.417 439.689 507.14 429.622 502.145 418.069C499.35 411.606 497.711 404.625 495.819 397.804C493.912 390.93 491.513 384.338 487.569 378.311C483.995 372.849 481.388 366.877 480.4 360.412C480.07 358.257 480.804 355.859 481.391 353.663C482.561 349.292 483.206 344.88 482.218 340.454C481.726 338.249 480.376 336.247 479.595 334.089C476.458 325.432 473.16 316.822 470.381 308.05C468.465 302.001 467.139 295.749 465.864 289.523C465.048 285.537 464.794 281.435 464.31 277.383C463.957 274.426 463.525 271.473 463.335 268.506C463.061 264.242 463.118 259.954 462.772 255.698C462.325 250.208 463.139 244.771 464.49 239.611C465.811 234.564 468.392 229.78 470.864 225.114C473.73 219.708 477.653 215.067 482.96 211.781C487.7 208.846 492.759 206.666 498.382 206.254C502.908 205.921 507.502 205.404 511.987 205.818ZM475.917 338.292C475.603 338.811 475.413 339.557 474.952 339.812C472.258 341.301 469.562 342.814 466.752 344.058C461.982 346.167 457.127 348.082 452.058 350.079C444.137 353.606 436.307 356.831 428.837 360.745C421.396 364.644 414.478 369.429 408.02 374.905C398.566 382.92 390.938 392.325 386.01 403.679C383.997 408.319 382.617 413.402 381.945 418.417C381.055 425.052 381.164 431.82 380.805 438.528C380.503 444.159 380.17 449.788 379.803 455.414C379.664 457.537 378.013 455.962 377.147 456.348C377.078 456.378 376.358 455.524 376.402 455.132C376.818 451.389 377.568 447.67 377.763 443.92C378.007 439.192 377.784 434.442 377.83 429.702C377.918 420.619 379.649 411.899 383.428 403.587C386.947 395.846 391.692 388.991 397.326 382.646C405.828 373.069 416.006 365.74 427.103 359.565C437.599 353.725 448.48 348.736 459.745 344.557C464.631 342.744 469.389 340.584 474.218 338.613C474.741 338.399 475.349 338.394 475.917 338.292ZM609.172 448.219C613.487 448.826 617.783 449.58 622.093 450.226C624.723 450.62 627.357 451.113 630.002 451.23C633.88 451.401 637.771 451.209 641.653 451.295C644.499 451.359 647.341 451.601 650.182 451.8C652.196 451.94 654.203 452.257 656.217 452.289C660.875 452.363 665.535 452.363 670.194 452.302C681.108 452.161 692.021 451.854 702.935 451.87C705.724 451.875 708.511 452.833 711.301 453.348C711.462 453.377 711.698 453.277 711.789 453.363C712.427 453.971 713.036 454.611 713.654 455.241C712.847 455.304 712.04 455.418 711.232 455.421C705.713 455.436 700.192 455.477 694.673 455.405C692.494 455.377 690.32 454.986 688.14 454.927C680.14 454.71 672.138 454.547 664.136 454.399C661.279 454.345 658.421 454.39 655.314 454.39C651.736 454.39 648.407 454.453 645.08 454.376C639.99 454.258 634.902 453.96 629.811 453.892C623.377 453.805 616.938 453.993 610.508 453.817C607.497 453.734 604.489 453.15 601.502 452.646C599.833 452.365 599.444 450.818 599.998 449.56C600.38 448.692 601.659 447.781 602.577 447.734C604.764 447.622 606.987 447.911 609.172 448.219ZM481.446 344.017C481.269 344.116 481.038 344.172 480.922 344.318C477.289 348.909 473.247 353.245 470.146 358.17C465.978 364.788 462.536 371.874 460.478 379.492C459.365 383.611 458.561 387.812 457.593 391.971C456.958 394.698 455.519 396.95 453.163 398.461C450.034 400.468 446.718 402.192 443.635 404.264C435.958 409.42 431.095 416.721 428.261 425.382C426.675 430.228 425.676 435.189 426.593 440.379C427.151 443.534 427.384 446.747 427.732 449.937C427.787 450.445 427.682 450.97 427.652 451.487C426.978 451.426 425.981 451.621 425.692 451.256C424.901 450.257 424.045 449.076 423.865 447.871C423.326 444.274 423.113 440.628 422.738 437.005C422.66 436.25 422.433 435.51 422.275 434.762C421.604 435.508 420.835 436.188 420.276 437.011C416.549 442.503 412.88 448.033 409.145 453.519C408.872 453.92 408.232 454.073 407.763 454.341C407.642 453.503 407.148 452.47 407.466 451.861C408.648 449.598 409.941 447.357 411.479 445.324C415.077 440.566 419.155 436.139 422.424 431.175C424.579 427.902 425.746 423.96 427.208 420.259C428.704 416.471 431.066 413.371 434.12 410.733C437.972 407.406 441.807 404.058 445.774 400.595C448.47 397.738 451.354 395.231 453.535 392.217C456.412 388.242 457.435 383.397 458.6 378.679C461.063 368.699 465.448 359.652 471.921 351.639C473.534 349.643 475.062 347.548 476.901 345.78C477.9 344.819 479.464 344.436 480.792 343.834C480.95 343.763 481.225 343.95 481.446 344.017ZM121.009 255.547C123.796 256.268 124.199 258.69 122.068 260.54C117.227 264.741 114.924 270.104 114.569 276.332C114.373 279.772 114.696 283.241 114.505 286.681C113.875 298.023 117.187 308.463 122.092 318.422C126.781 327.944 133.609 335.785 143.406 340.366C149.028 342.994 155.04 344.839 160.96 346.783C166.102 348.472 171.371 349.776 176.568 351.304C181.667 352.803 186.689 354.163 192.091 352.361C194.862 351.437 196.942 353.916 195.88 356.602C191.867 366.758 188.448 377.3 181.398 385.864C177.17 391.001 172.278 395.755 167.044 399.88C159.361 405.935 150.527 410.252 141.702 414.505C133.095 418.653 124.682 423.203 116.037 427.267C106.297 431.846 96.4278 436.157 86.5516 440.44C78.5839 443.895 70.5403 447.181 62.4887 450.44C60.5634 451.219 58.5011 451.766 56.4493 452.106C54.3934 452.446 49.8769 449.223 49.07 447.092C47.0225 441.685 45.6306 436.125 45.0558 430.362C44.706 426.855 44.2352 423.36 43.6938 419.86C43.5688 419.611 43.5688 419.363 43.6938 418.99C43.902 414.194 43.9894 409.522 44.0474 404.849C44.049 404.721 43.7354 404.588 43.5688 404.458V402.594C43.6521 402.47 43.8083 402.473 43.8084 402.47C43.9658 398.145 44.0996 393.819 44.2676 389.495C44.3218 388.097 44.4798 386.704 44.5661 385.308C45.2824 373.713 46.66 362.192 49.6273 350.951C51.9952 341.98 55.1219 333.255 58.9221 324.733C63.2569 315.011 68.5271 305.87 74.5995 297.178C77.6933 292.749 81.0724 288.482 84.6678 284.445C88.9937 279.589 93.4383 274.78 98.2863 270.455C103.821 265.517 109.769 261.016 115.742 256.599C117.072 255.616 119.422 255.136 121.009 255.547ZM113.747 262.362C113.466 262.488 113.149 262.566 112.91 262.747C105.4 268.439 97.9359 274.189 91.7173 281.332C87.8542 285.769 83.9052 290.144 80.258 294.752C71.3937 305.953 64.5341 318.297 59.3112 331.919C59.1339 332.427 58.9281 332.926 58.7835 333.443C56.5393 341.461 54.1646 349.447 52.128 357.517C51.2246 361.097 50.9652 364.843 50.4912 368.523C49.9696 372.574 49.3886 376.626 49.1125 380.695C48.8849 384.048 49.1915 387.434 49.0319 390.795C48.8336 394.97 48.2564 399.128 48.1164 403.303C48.0219 406.124 48.4771 408.958 48.5465 411.789C48.6304 415.21 48.5025 418.636 48.5864 422.057C48.6551 424.862 48.7224 427.688 49.1114 430.46C49.5878 433.855 50.4365 437.197 51.0562 440.573C51.9511 445.449 53.9544 447.337 58.7287 447.682C62.0748 447.925 64.6179 445.947 65.0863 442.813C65.1433 442.432 65.7432 441.768 65.8212 441.805C70.0395 443.785 73.7012 441.79 77.398 440.222C85.2535 436.889 93.1442 433.63 100.921 430.123C112.492 424.905 124.015 419.578 135.482 414.136C140.846 411.59 146.115 408.815 151.279 405.887C161.357 400.171 170.571 393.393 178.032 384.379C183.815 377.393 187.39 369.451 189.462 360.761C189.855 359.111 189.276 357.678 187.302 357.254C181.954 356.106 176.617 354.898 171.26 353.789C160.372 351.535 149.848 348.395 140.063 342.898C127.498 335.841 119.45 325.182 114.616 312.015C112.323 305.769 110.482 299.296 110.529 292.494C110.565 287.388 110.115 282.235 110.659 277.186C111.162 272.52 112.705 267.965 113.771 263.356C113.843 263.043 113.758 262.694 113.747 262.362ZM323.251 336.169C326.228 338.214 329.174 340.311 332.06 342.485C332.842 343.074 332.903 343.66 333.258 342.118C333.812 339.708 337.24 339.036 339.294 340.748C344.002 344.675 346.378 349.955 348.101 355.696C349.596 360.677 349.003 365.739 349.149 370.77C349.242 374 352.267 376.436 355.442 376.566C357.789 376.662 360.258 377.692 362.37 378.857C367.479 381.675 370.764 386.122 372.379 391.723C374.118 397.755 372.5 403.125 369.003 408.137C365.824 412.695 362.928 417.47 358.313 420.812C355.76 422.661 352.819 424.196 350.821 426.531C348.675 429.039 346.211 430.674 343.288 431.801C336.089 434.579 328.223 430.976 324.698 424.974C321.522 419.565 313.874 420.754 310.91 425.137C309.618 427.049 309.262 429.574 308.296 431.738C307.704 433.066 308.279 432.864 309.167 432.732C313.567 432.078 317.971 431.453 322.375 430.83C322.601 430.798 322.844 430.886 323.079 430.918C322.904 431.052 322.743 431.209 322.553 431.316C318.186 433.784 313.458 435.177 308.515 435.767C304.769 436.214 300.941 436.929 297.248 436.551C294.339 436.253 291.378 434.808 288.808 433.26C285.777 431.435 284.867 428.337 284.925 424.715C285.039 417.684 287.737 411.751 292.19 406.608C293.472 405.126 295.737 404.503 297.54 403.465C298.224 403.07 299.222 403.021 298.011 401.748C292.722 396.194 288.025 390.177 284.811 383.133C284.303 382.021 283.78 380.874 283.558 379.689C283.422 378.961 283.625 377.92 284.098 377.418C284.395 377.101 285.577 377.328 286.175 377.655C287.071 378.145 287.781 378.964 288.609 379.593C290.019 380.665 290.802 380.209 290.42 378.537C289.334 373.785 290.332 369.274 292.004 364.915C292.905 362.564 294.371 360.419 295.732 358.276C295.862 358.073 297.171 358.381 297.741 358.749C298.797 359.432 299.712 360.335 300.686 361.147C300.752 359.848 300.772 358.545 300.9 357.252C300.975 356.484 301.164 355.716 301.397 354.977C302.564 351.276 303.19 351.089 306.279 353.41C306.693 353.721 307.189 353.924 307.647 354.177L307.781 353.235C307.801 353.078 307.819 352.921 307.832 352.763C308.173 348.696 307.359 345.006 304.386 341.986C304.35 341.95 304.996 340.889 305.367 340.859C309.65 340.523 313.933 340.345 317.851 342.634C318.652 343.101 319.451 343.572 320.375 344.166C320.747 343.828 321.164 343.383 321.215 342.899C321.447 340.709 321.552 338.505 321.805 336.318C321.819 336.2 322.93 335.949 323.251 336.169ZM294.716 406.992C294.62 407.173 294.558 407.388 294.422 407.531C289.549 412.675 287.276 418.786 287.457 425.872C287.555 429.72 289.606 432.554 293.455 433.256C295.901 433.702 298.438 433.682 300.938 433.751C301.24 433.759 301.733 433.054 301.848 432.605C302.585 429.743 302.533 426.551 305.601 424.357C306.457 424.025 307.314 423.697 308.168 423.361C308.557 423.209 309.245 423.07 309.262 422.878C309.298 422.469 309.102 421.836 308.788 421.642C307.949 421.123 307.03 420.55 306.085 420.419C301.726 419.813 298.633 417.516 296.859 413.561C296.015 411.681 295.556 409.627 294.924 407.652C294.853 407.433 294.785 407.212 294.716 406.992ZM306.346 426.098C306.014 427.351 305.635 428.595 305.4 429.866C305.36 430.079 306.029 430.691 306.223 430.632C307.014 430.391 307.268 426.589 306.346 426.098ZM324.417 338.875C324.684 339.788 325.06 340.686 325.195 341.618C325.499 343.733 325.317 345.755 323.239 347.001C321.578 347.997 320.335 346.801 319.205 345.926C316.641 343.943 313.611 343.684 310.6 343.306C308.956 343.1 308.881 343.776 309.418 345.192C310.209 347.273 311.192 349.484 311.131 351.611C311.092 352.946 309.386 354.323 308.248 355.508C307.187 356.614 306.171 356.091 305.331 354.999C305.202 354.832 304.788 354.885 304.505 354.836C304.525 355.285 304.466 355.754 304.577 356.179C305.235 358.707 304.292 361.15 301.641 362.603C299.806 363.609 298.513 362.075 297.398 360.886C296.559 359.992 296.482 360.535 296.127 361.216C293.03 367.142 292.675 373.34 294.319 379.709C294.727 381.293 293.999 382.081 292.692 382.02C291.17 381.95 289.676 381.351 288.157 381.046C287.454 380.905 286.72 380.916 286 380.858C286.196 381.551 286.286 382.298 286.603 382.929C289.231 388.157 292.61 392.886 296.995 396.729C299.581 398.996 301.169 400.985 301.091 404.896C300.99 410.004 303.709 414.182 308.424 416.959C312.18 419.172 316.174 418.71 320.136 418.846C322.163 418.916 323.638 419.616 324.844 421.224L325.324 421.866C327.798 425.185 330.245 428.491 334.674 429.651C339.668 430.959 344.233 430.437 348.083 426.917C348.885 426.184 348.893 424.432 348.928 423.14C348.935 422.906 347.309 422.492 346.412 422.391C342.826 421.991 339.22 422.9 335.599 421.921C330.483 420.536 325.783 418.498 321.907 414.808C321.176 414.112 320.561 413.294 319.892 412.532C321.071 412.81 322.252 413.078 323.426 413.372C323.72 413.445 324.055 413.532 324.267 413.727C329.748 418.777 336.179 420.978 343.614 420.391C351.159 419.796 355.045 415.835 355.434 409.214C355.836 402.375 354.516 395.752 351.369 389.553C350.914 388.656 350.919 387.412 351.028 386.362C351.455 382.284 352.479 378.167 348.101 375.267C347.366 374.779 347.162 373.149 347.111 372.028C346.962 368.705 345.915 367.465 342.672 367.164C340.694 366.98 339.585 365.796 339.133 363.939C339.003 363.4 339.009 362.828 338.952 362.272C338.426 362.747 337.758 363.133 337.396 363.712C335.561 366.649 332.824 368.465 329.947 370.222C328.489 371.113 328.018 371.011 327.657 369.362C327.487 368.586 326.856 367.911 326.435 367.19C326.029 367.768 325.608 368.335 325.221 368.925C324.709 369.703 324.348 370.625 323.705 371.265C321.408 373.549 319.088 375.823 316.612 377.904C316.073 378.357 314.456 378.365 314.046 377.92C313.505 377.334 313.577 376.102 313.552 375.143C313.526 374.189 313.762 373.229 313.767 372.272C313.769 371.897 313.473 371.219 313.281 371.207C312.871 371.183 312.238 371.383 312.05 371.701L311.077 373.341C310.103 374.984 309.147 376.639 308.364 378.371C306.266 383.01 305.407 387.937 305.291 393.028C305.275 393.745 304.51 394.517 303.935 395.11C303.738 395.313 302.722 395.162 302.66 394.977C302.391 394.174 302.182 393.289 302.238 392.453C302.328 391.128 302.67 389.821 302.865 388.5C304.042 380.527 307.494 373.747 313.451 368.292C313.67 368.092 314.432 368.077 314.445 368.121C314.986 369.97 315.491 371.83 315.947 373.703C316.05 374.125 315.955 374.596 315.951 375.045C316.351 374.863 316.797 374.745 317.142 374.489C320.91 371.701 323.926 368.267 326.088 364.082C326.609 363.073 327.338 362.173 327.972 361.222L329.083 363.247C329.452 363.922 329.816 364.6 330.164 365.287C330.298 365.55 330.086 365.986 330.215 366.256C330.31 366.457 330.867 366.683 330.93 366.618C332.855 364.63 334.705 362.568 336.659 360.611C337.408 359.861 338.82 358.625 339.177 358.843C340.339 359.555 341.193 360.805 342.072 361.921C342.273 362.176 341.949 362.822 342.135 363.12C342.475 363.663 343.201 364.562 343.441 364.47C344.649 364.002 345.863 363.391 346.838 362.554C347.228 362.219 347.01 361.174 346.82 360.204C345.817 353.864 343.314 348.258 338.744 343.665C338.457 343.376 338.16 343.096 337.867 342.812C337.789 343.194 337.711 343.575 337.632 343.957C337.196 346.062 334.931 347.33 333.297 346.055C331.235 344.447 329.599 342.302 327.628 340.561C326.748 339.783 325.499 339.424 324.417 338.875ZM498.985 390.81C498.809 390.986 498.51 391.142 498.477 391.341C498.361 392.054 498.188 392.804 498.3 393.498C498.915 397.294 499.687 401.065 500.256 404.867C501.249 411.499 502.909 417.936 506.335 423.741C507.55 425.8 509.522 427.417 511.177 429.211C511.364 429.414 511.732 429.453 512.016 429.568C512.004 429.392 512.01 429.213 511.977 429.041C511.576 426.969 511.418 424.81 510.715 422.844C509.037 418.156 507.101 413.56 505.019 408.679C503.771 405.297 502.451 401.94 501.297 398.527C500.504 396.177 499.944 393.749 499.269 391.359C499.214 391.165 499.082 390.993 498.985 390.81ZM632.621 379.672C632.612 379.899 632.138 380.087 631.918 380.328C631.32 380.984 630.621 381.588 630.175 382.338C625.256 390.593 622.67 399.682 620.669 408.973C620.138 411.438 619.666 413.917 619.166 416.886C619 418.308 618.664 419.736 618.711 421.151C618.765 422.796 618.749 424.639 619.473 426.029C621.503 429.926 626.949 429.815 630.291 427.763C633.383 425.864 634.869 422.802 636.543 419.912C639.398 414.985 641.781 409.781 644.747 404.927C648.78 398.325 652.758 391.748 654.576 384.124C655.123 381.831 653.955 380.267 651.507 380.337C645.745 380.503 640.145 379.368 634.538 378.316C632.652 377.962 632.697 377.865 632.621 379.672ZM353.952 378.639C352.956 382.927 353.594 387.021 354.828 391.067C356.626 396.962 358.587 402.812 357.985 409.112C357.564 413.52 355.584 417.001 351.797 419.434C351.215 419.808 350.954 420.683 350.544 421.326C351.311 421.485 352.084 421.782 352.843 421.753C353.311 421.735 353.817 421.281 354.209 420.917C357.01 418.313 360.15 415.965 362.469 412.98C364.8 409.979 366.306 406.335 368.422 402.724C368.907 400.415 369.48 398.12 369.86 395.794C370.71 390.574 368.097 385.551 363.334 383.777C360.216 382.616 356.801 382.184 355.476 378.397C355.26 377.779 354.453 376.479 353.952 378.639ZM203.105 265.415C209.192 266.137 215.321 267.266 221.161 269.094C227.42 271.054 232.904 274.783 237.342 279.696C243.392 286.393 247.339 294.177 249.093 303.116C249.836 306.901 250.07 310.659 249.998 314.464C249.953 316.879 249.704 319.291 249.521 321.702C249.131 326.859 250.425 331.765 251.705 336.679C253.015 341.712 252.538 346.757 252.076 351.867C251.394 359.419 248.553 366.251 245.471 372.97C243.487 377.295 240.801 381.309 238.297 385.382C236.179 388.828 233.871 392.156 231.523 395.661C228.357 400.646 225.265 405.477 222.293 410.38C220.983 412.542 219.917 414.851 218.734 417.09C218.589 417.364 218.445 417.655 218.233 417.872C217.499 418.623 216.735 419.345 215.982 420.079C215.911 419.008 215.488 417.809 215.824 416.886C218.518 409.505 222.668 402.917 227.169 396.523C232.619 388.781 238.41 381.248 242.274 372.508C244.813 366.766 246.816 360.859 247.523 354.588C247.933 350.956 248.393 347.311 248.476 343.664C248.56 340.043 248.205 336.411 248.02 332.784C248.011 332.605 247.697 332.275 247.68 332.285C247.275 332.517 246.808 332.716 246.517 333.059C244.966 334.886 243.486 336.772 241.934 338.597C237.989 343.234 233.185 346.354 227.123 347.704C221.135 349.038 216.101 347.295 211.846 343.393C206.455 338.447 206.536 332.398 210.245 326.673C213.639 321.435 218.556 318.657 224.881 317.768C231.064 316.898 236.678 318.616 242.291 320.448C244.365 321.125 245.643 321.852 245.742 318.918C245.853 315.595 245.648 312.228 246.123 308.96C246.733 304.757 245.268 301.088 244.083 297.273C241.739 289.724 237.208 283.815 231.147 278.817C226.498 274.982 221.281 272.346 215.592 270.8C209.72 269.205 203.76 268.474 197.513 269.108C187.392 270.135 178.598 274.009 170.607 279.934C164.946 284.131 160.541 289.565 156.638 295.413C156.056 296.284 155.095 296.902 154.313 297.641C153.336 298.564 152.033 298.83 151.335 297.75C150.806 296.931 150.613 295.183 151.131 294.516L152.336 292.963C154.749 289.852 157.211 286.746 160.079 284.099C163.591 280.857 167.617 278.128 171.606 275.453C178.272 270.982 185.576 267.973 193.561 266.751C196.75 266.263 200.021 265.048 203.105 265.415ZM299.012 410.565C298.973 410.881 298.87 411.203 298.906 411.51C299.244 414.362 301.112 416.251 303.226 417.831C303.934 418.36 305.173 418.175 306.169 418.317C305.644 417.508 305.152 416.673 304.581 415.898C304.241 415.437 303.775 415.069 303.366 414.162C302.148 413.109 300.935 412.051 299.71 411.006C299.502 410.829 299.246 410.711 299.012 410.565ZM691.644 233.804C688.978 236.023 686.326 238.269 683.796 240.638C679.644 244.524 677.015 249.496 674.841 254.59C670.269 265.301 666.043 276.159 661.716 286.973C655.34 302.911 649 318.863 642.645 335.306C642.312 335.833 641.884 336.322 641.66 336.892C637.618 347.161 633.615 357.446 629.574 367.715C626.459 375.631 623.154 383.476 620.209 391.452C617.485 398.83 615.722 406.485 614.695 414.289C614.596 415.041 614.852 415.839 614.942 416.615C615.018 415.955 614.991 415.259 615.206 414.647C615.35 414.236 616.01 413.999 616.143 413.589C618.676 405.762 621.001 397.863 623.719 390.1C625.589 384.757 627.939 379.577 630.179 374.368C631.225 371.935 632.159 371.7 634.509 372.863C636.096 373.649 637.712 374.384 639.264 375.235C641.717 376.58 644.315 377.09 647.088 376.844C649.064 376.669 651.535 374.389 651.583 372.266C651.63 370.191 650.708 368.526 648.302 368.307C646.797 368.169 645.258 368.243 643.787 367.957C642.701 367.746 641.699 367.106 640.66 366.658C641.337 366.14 641.967 365.534 642.71 365.138C643.169 364.894 643.801 364.968 644.356 364.904C648.077 364.474 651.233 366.254 654.503 367.527C660.391 369.821 663.71 369.384 666.702 365.456C668.309 363.346 669.387 360.786 670.45 358.321C675.274 347.133 680.395 336.049 684.668 324.652C689.089 312.863 693.208 300.901 696.446 288.747C699.929 275.671 703.746 262.577 704.419 248.912C704.605 245.149 704.282 241.506 703.205 237.79C701.472 231.808 695.825 230.324 691.644 233.804ZM486.925 353.573C486.712 353.982 486.441 354.372 486.295 354.804C484.425 360.346 484.717 365.895 487.306 371.027C490.017 376.399 493.336 381.468 496.42 386.651C496.551 386.871 496.987 386.911 497.281 387.035C497.376 386.635 497.639 386.186 497.539 385.843C496.656 382.817 495.651 379.825 494.825 376.785C494.654 376.158 494.84 375.111 495.278 374.721C495.926 374.144 497.013 373.586 497.796 373.716C500.057 374.094 501.935 376.781 502.158 379.464C502.527 383.895 502.657 388.362 503.326 392.747C504.404 399.801 507.186 406.332 510.276 412.725C510.443 413.071 510.769 413.34 511.022 413.645C511.269 413.251 511.632 412.885 511.742 412.455C512.129 410.95 512.201 409.325 512.804 407.921C514.927 402.974 514.893 398.218 512.294 393.427C510.872 390.805 509.765 388.014 508.267 385.05C507.209 382.007 506.708 378.593 504.966 376.008C502.279 372.022 498.66 368.671 495.593 364.923C492.886 361.615 490.394 358.133 487.806 354.728L486.925 353.573ZM345.132 400.791C345.701 401.765 346.141 402.667 346.863 403.195C349.575 405.178 349.271 410.517 346.601 412.162C346.004 412.53 344.972 412.22 344.141 412.222C344.141 411.547 343.934 410.789 344.174 410.211C345.864 406.145 344.109 402.814 339.681 401.746C338.988 401.579 338.358 401.157 337.699 400.853C338.305 400.481 338.898 400.087 339.52 399.741C340.184 399.373 340.874 399.047 341.554 398.708C344.117 397.43 344.526 397.641 345.132 400.791ZM349.616 379.528C350.018 381.842 349.894 384.342 349.479 386.669C349.155 388.485 344.392 389.483 341.803 389.147C339.067 388.792 337.384 387.159 335.684 385.418C334.203 383.902 332.514 382.71 330.425 383.553C328.303 384.409 328.223 386.516 328.322 388.759C327.727 392.705 326.581 395.896 323.137 398.232C318.576 401.324 313.322 399.059 311.273 395.311C311.041 394.887 310.63 394.56 310.303 394.189C310.055 394.553 309.729 394.886 309.571 395.285C308.34 398.397 307.003 401.477 305.984 404.656C305.348 406.638 306.254 407.539 308.279 407.518C309.633 407.505 310.987 407.493 312.34 407.531C312.695 407.541 313.044 407.736 313.396 407.846C313.2 408.177 313.081 408.69 312.796 408.807C311.519 409.333 310.005 410.388 308.924 410.075C306.085 409.252 303.598 407.698 303.436 404.18C303.172 398.451 306.248 394.128 309.519 389.913C313.244 385.114 318.744 383.419 324.288 381.849C331.252 379.876 338.214 377.895 345.18 375.93C346.631 375.521 349.219 377.243 349.616 379.528ZM322.983 383.985C320.499 384.97 318.043 386.056 315.669 387.278C311.57 389.388 311.14 393.119 314.553 396.077C318.102 399.153 322.658 398.11 323.997 393.714C324.749 391.249 324.91 388.607 325.337 385.551C325.452 383.7 324.286 383.467 322.983 383.985ZM333.276 385.817C333.494 385.904 333.705 386.016 333.931 386.074C337.302 386.934 339.924 392.423 338.322 395.395C338.005 395.982 337.357 396.383 336.862 396.869C336.738 396.385 336.601 395.903 336.494 395.415C336.177 393.97 335.873 392.521 335.447 390.956C334.679 389.377 334.02 387.92 333.38 386.455C333.297 386.264 333.308 386.031 333.276 385.817ZM343.753 377.456C340.957 378.431 338.269 379.71 335.039 380.862C334.956 381.237 334.69 381.693 334.818 381.973C336.428 385.506 342.479 387.997 346.104 386.666C348.242 385.881 349.425 383.171 348.721 380.673C348.232 378.941 345.364 376.893 343.753 377.456ZM600.632 291.897C605.447 292.366 609.29 294.47 612.221 298.614C613.831 300.891 612.607 302.778 612.229 304.69C610.863 311.584 609.215 318.421 607.65 325.273C606.361 330.916 605.049 336.552 603.73 342.188C601.972 349.697 600.207 357.205 598.428 364.709C597.149 370.108 595.853 375.504 594.533 380.893C594.395 381.457 594.044 381.966 593.792 382.501C593.559 381.939 593.084 381.356 593.13 380.819C593.495 376.565 593.864 372.307 594.419 368.076C595.002 363.622 595.714 359.182 596.509 354.763C597.459 349.489 598.456 344.219 599.611 338.989C602.224 327.145 605.6 315.527 609.46 304.037C610.993 299.472 606.636 296.459 603.112 296.538C600.86 296.589 598.916 297.103 596.847 297.609C596.505 297.692 595.967 296.935 595.519 296.318C595.519 295.905 595.467 295.716 595.527 295.579C596.007 294.488 594.266 292.49 596.831 292.251C598.101 292.133 599.388 291.776 600.632 291.897ZM353.641 358.187C356.663 358.233 359.683 358.634 362.701 358.606C367.018 358.564 371.138 359.484 374.994 361.183C378.385 362.677 381.517 364.743 384.888 366.681C388.821 370.183 391.815 374.1 392.966 379.118C393.117 379.777 392.391 380.632 392.072 381.396C391.556 380.936 390.716 380.557 390.573 380.003C387.832 369.381 380.115 364.211 370.038 361.618C364.533 360.201 358.963 360.55 353.375 361.049C352.651 361.113 351.03 362.07 350.969 360.163C350.913 358.41 352.395 358.168 353.641 358.187ZM497.279 209.333C487.464 210.726 480.204 216.359 474.703 224.446C468.707 233.26 466.701 243.277 466.438 253.571C466.25 260.921 467.129 268.319 467.86 275.663C468.407 281.149 469.183 286.65 470.389 292.026C471.908 298.802 474.001 305.45 475.789 312.168C478.778 323.401 482.541 334.371 487.312 344.971C492.397 356.27 499.083 366.506 508.477 374.783C511.51 377.455 515.025 379.386 519.113 379.792C524.206 380.298 529.152 379.338 534.021 377.849C544.439 374.661 554.965 371.798 565.278 368.309C574.695 365.122 580.561 358.288 582.652 348.584C584.221 341.308 585.544 333.968 586.64 326.606C587.574 320.343 588.331 314.021 588.595 307.701C588.797 302.868 588.165 297.993 587.797 293.145C587.517 289.45 587.069 285.768 586.695 281.582C585.481 274.228 583.279 267.189 580.379 260.307C575.972 249.85 569.901 240.649 561.693 232.71C552.746 224.055 542.052 218.549 530.424 214.763C523.861 212.626 517.068 211.053 510.271 209.814C506.039 209.043 501.513 208.732 497.279 209.333ZM205.008 276.633C204.716 277.089 204.457 277.57 204.128 277.998C198.021 285.94 191.555 293.634 185.884 301.875C179.192 311.599 173.6 322.014 169.259 333.227C167.569 336.741 166.021 340.141 164.427 343.519C163.583 345.307 161.827 345.083 160.631 344.507C159.336 343.883 159.496 342.562 160.271 341.174C166.663 329.734 172.798 318.148 179.337 306.795C183.349 299.832 187.682 293.019 192.363 286.492C194.868 283 198.399 280.243 201.51 277.197C201.923 276.793 202.568 276.507 203.144 276.42C203.741 276.33 204.385 276.549 205.008 276.633ZM221.394 322.295C214.546 324.111 211.143 329.124 211.736 335.716C212.11 339.871 213.754 342.53 217.692 343.651C222.207 344.935 226.714 344.346 230.965 342.637C237.064 340.185 242.052 336.477 243.565 329.036C243.724 327.031 243.147 325.566 241.36 324.26C235.031 319.633 228.35 320.45 221.394 322.295ZM364.142 191.783C363.975 191.99 363.808 192.073 363.641 192.28C363.106 192.521 362.443 192.476 362.055 192.779C352.374 200.343 346.301 210.225 343.111 221.966C341.595 227.541 340.908 233.228 341.16 238.963C341.602 249.057 344.77 258.282 350.511 266.677C356.783 275.849 365.116 282.599 375.065 287.334C380.767 290.048 386.819 292.002 393.229 292.343C396.113 292.497 399.065 292.022 401.894 292.443C407.33 293.252 412.388 291.789 417.409 290.329C427.52 287.387 436.418 282.306 444.041 274.963C449.664 269.545 454.528 263.655 457.739 256.51C457.802 256.369 457.881 256.236 457.952 256.1C458.048 256.285 458.246 256.483 458.224 256.653C457.745 260.28 457.977 263.953 455.398 267.19C447.414 277.21 438.154 285.651 426.157 290.553C421.025 292.65 415.545 293.997 410.125 295.273C406.865 296.041 403.406 296.367 400.053 296.279C391.569 296.056 383.385 294.266 375.554 290.896C367.193 287.298 359.871 282.245 353.633 275.683C346.378 268.051 341.314 259.167 339.174 248.839C338.322 244.725 337.644 240.472 337.702 236.294C337.882 223.241 341.72 211.207 349.32 200.522C351.392 197.611 354.177 195.191 356.704 192.614C357.895 191.399 363.185 190.813 364.142 191.783ZM374.809 191.909C374.935 191.923 375.045 192.077 375.162 192.166C374.945 192.243 374.732 192.329 374.512 192.396C365.993 194.997 359.925 200.589 355.871 208.333C353.387 213.079 352.041 218.236 351.282 223.615C349.741 234.549 352.265 244.616 357.514 253.998C363.999 265.589 373.17 274.411 385.865 278.978C389.913 280.434 394.098 281.997 398.322 282.379C408.464 283.296 418.207 281.478 427.236 276.395C433.967 272.607 439.499 267.537 444.46 261.651C450.214 254.824 453.486 246.868 455.521 238.364C456.234 235.383 455.928 232.158 456.115 229.047C456.15 228.464 456.312 227.889 456.416 227.31C457.098 227.662 458.15 227.847 458.395 228.396C459.269 230.35 460.618 232.506 460.417 234.442C460.003 238.423 459.005 242.414 457.711 246.218C454.355 256.09 448.424 264.326 440.728 271.26C433.566 277.711 425.311 282.218 415.916 284.48C412.735 285.246 409.517 286.126 406.28 286.312C403.282 286.485 400.209 285.961 397.217 285.457C393.231 284.785 389.159 284.226 385.356 282.932C374.852 279.359 366.041 273.289 358.937 264.584C353.261 257.629 349.983 249.728 348.41 241.063C346.56 230.867 348.218 220.988 351.99 211.451C354.543 204.997 358.264 199.278 363.364 194.511C363.75 194.151 363.963 193.604 364.257 192.895C364.422 192.563 364.588 192.48 364.753 192.397C368.022 190.532 371.431 191.516 374.809 191.909ZM749.189 280.82C752.606 280.856 756.016 281.321 759.431 281.589C763.587 281.914 767.741 282.324 771.905 282.484C775.888 282.638 779.888 282.42 783.872 282.559C785.836 282.628 787.837 282.975 789.703 283.53C790.339 283.719 790.616 284.931 791.056 285.675C790.45 285.855 789.855 286.086 789.234 286.202C788.514 286.337 787.772 286.37 786.913 286.331C778.628 286.061 770.469 285.847 762.308 285.783C759.003 285.757 755.694 286.183 752.389 286.164C750.769 286.155 749.145 285.625 747.535 285.284C745.856 284.927 745.354 283.535 745.98 282.517C746.517 281.643 748.087 280.808 749.189 280.82ZM399.407 198.799C401.275 207.705 403.004 216.641 404.836 225.555C405.776 230.132 404.659 232.031 400.724 234.253C395.524 237.189 390.494 240.459 385.524 243.795C383.034 245.465 380.992 246.047 379.629 244.727C378.341 243.48 378.13 242.383 379.848 241.214C385.223 237.554 390.623 233.92 395.82 230.007C396.952 229.155 397.97 227.121 397.854 225.736C397.428 220.679 396.527 215.663 395.748 210.64C395.423 208.545 394.956 206.472 394.554 204.138C394.362 202.079 393.811 200.205 394.109 198.487C394.296 197.409 395.653 195.939 396.676 195.754C398.49 195.427 399.103 197.349 399.407 198.799ZM742.051 177.99C742.354 178.307 742.521 179.17 742.307 179.485C741.283 180.995 740.107 182.404 738.86 183.974C734.837 189.458 730.989 194.856 726.982 200.134C726.457 200.825 724.76 201.484 724.224 201.157C722.864 200.328 724.089 199.443 724.654 198.502C728.398 192.263 732.023 185.952 735.734 179.692C737.443 176.81 740.222 176.078 742.051 177.99ZM627.928 97.3538C628.584 97.4087 629.32 98.1999 629.762 98.8526C631.385 101.247 630.532 103.939 630.209 106.427C629.645 110.767 628.625 115.046 627.831 119.357C627.459 121.371 627.168 123.399 626.84 125.67C626.185 129.049 625.473 132.168 624.887 135.311C623.825 141.02 622.875 146.751 621.808 152.459C620.917 157.22 619.954 161.969 618.971 166.712C617.358 174.5 615.755 182.291 614.029 190.053C613.556 192.183 611.897 192.981 610.537 191.962C610.078 191.618 609.62 190.737 609.73 190.227C612.274 178.354 615 166.52 617.469 154.631C619.284 145.889 620.582 137.036 622.475 128.314C624.278 120.004 625.206 111.674 624.94 103.171C624.894 101.7 625.584 100.147 626.182 98.7407C626.453 98.1037 627.368 97.3069 627.928 97.3538ZM493.154 156.32C493.633 157.128 494.124 157.929 494.61 158.988C495.419 163.29 496.254 167.332 497.027 171.387C497.417 173.431 497.717 175.495 498.009 177.557C498.081 178.069 497.966 178.611 497.937 179.139C497.223 179.019 496.071 179.141 495.869 178.739C494.83 176.671 493.894 174.517 493.19 172.3C492.383 169.76 492.046 167.047 491.136 164.557C490.638 163.194 489.282 162.202 488.493 160.921C487.81 159.813 487.008 158.545 486.975 157.327C486.954 156.545 488.124 155.231 488.953 155.031C490.403 154.681 492.127 154.584 493.154 156.32Z" fill="#00160A"/>
<path d="M327.766 404.531C330.715 403.74 332.85 402.144 332.534 400.965C332.218 399.785 329.571 399.47 326.622 400.26C323.673 401.051 321.538 402.647 321.854 403.826C322.17 405.006 324.817 405.321 327.766 404.531Z" fill="black"/>
<path fill-rule="evenodd" clip-rule="evenodd" d="M348.066 394.943C350.172 394.153 351.385 392.557 350.951 391.378C350.544 390.199 348.986 389.883 347.297 390.673C345.443 391.463 343.79 393.059 343.78 394.238C343.797 395.417 345.794 395.733 348.066 394.943Z" fill="black"/>
</svg>
